<svg width="38" height="38" viewBox="0 0 38 38" fill="none" xmlns="http://www.w3.org/2000/svg">
<path d="M20.8849 4.56284L20.1781 5.51706L20.8849 4.56284ZM31.9682 12.7727L31.2614 13.7269L31.9682 12.7727ZM3.5625 15.3173V31.6666H5.9375V15.3173H3.5625ZM7.91667 36.0208H30.0833V33.6458H7.91667V36.0208ZM34.4375 31.6666V15.3173H32.0625V31.6666H34.4375ZM32.6751 11.8185L21.5917 3.60862L20.1781 5.51706L31.2614 13.7269L32.6751 11.8185ZM16.4083 3.60861L5.32495 11.8185L6.73861 13.7269L17.8219 5.51706L16.4083 3.60861ZM21.5917 3.60862C20.0521 2.46816 17.9479 2.46815 16.4083 3.60861L17.8219 5.51706C18.5218 4.99867 19.4782 4.99867 20.1781 5.51706L21.5917 3.60862ZM34.4375 15.3173C34.4375 13.9377 33.7837 12.6397 32.6751 11.8185L31.2614 13.7269C31.7653 14.1002 32.0625 14.6902 32.0625 15.3173H34.4375ZM30.0833 36.0208C32.4881 36.0208 34.4375 34.0714 34.4375 31.6666H32.0625C32.0625 32.7597 31.1764 33.6458 30.0833 33.6458V36.0208ZM3.5625 31.6666C3.5625 34.0714 5.51192 36.0208 7.91667 36.0208V33.6458C6.82361 33.6458 5.9375 32.7597 5.9375 31.6666H3.5625ZM5.9375 15.3173C5.9375 14.6902 6.2347 14.1002 6.73861 13.7269L5.32495 11.8185C4.21634 12.6397 3.5625 13.9377 3.5625 15.3173H5.9375Z" fill="#BCBBBF"/>
<path d="M12.2709 34.8333C12.2709 35.4892 12.8025 36.0208 13.4584 36.0208C14.1142 36.0208 14.6459 35.4892 14.6459 34.8333H12.2709ZM23.3542 34.8333C23.3542 35.4892 23.8859 36.0208 24.5417 36.0208C25.1975 36.0208 25.7292 35.4892 25.7292 34.8333H23.3542ZM14.6459 34.8333V23.75H12.2709V34.8333H14.6459ZM15.8334 22.5625H22.1667V20.1875H15.8334V22.5625ZM23.3542 23.75V34.8333H25.7292V23.75H23.3542ZM22.1667 22.5625C22.8225 22.5625 23.3542 23.0942 23.3542 23.75H25.7292C25.7292 21.7825 24.1342 20.1875 22.1667 20.1875V22.5625ZM14.6459 23.75C14.6459 23.0942 15.1775 22.5625 15.8334 22.5625V20.1875C13.8659 20.1875 12.2709 21.7825 12.2709 23.75H14.6459Z" fill="#BCBBBF"/>
</svg>
