<svg width="38" height="38" viewBox="0 0 38 38" fill="none" xmlns="http://www.w3.org/2000/svg">
<path d="M3.25391 18.9181C3.25391 27.6626 10.3427 34.7514 19.0872 34.7514C26.4102 34.7514 32.5721 29.78 34.3819 23.028C34.5115 22.5446 34.1358 22.0849 33.6353 22.0849H28.5588C28.2276 22.0849 27.9342 22.2923 27.8019 22.596C26.3847 25.8468 23.1645 28.4181 19.0872 28.4181C12.7539 28.4181 9.58724 22.8764 9.58724 18.9181C9.58724 15.308 11.8737 11.6978 15.4041 10.1731C15.7101 10.0409 15.9206 9.7462 15.9206 9.41285V4.37C15.9206 3.86949 15.4609 3.4938 14.9774 3.62338C8.2254 5.43317 3.25391 11.5951 3.25391 18.9181Z" stroke="#3563DE" stroke-width="3.16667"/>
<path d="M34.5809 15.6377C33.2933 9.52591 28.4807 4.71301 22.369 3.42509C21.8953 3.32525 21.4635 3.69727 21.4635 4.18142L21.4635 9.13919C21.4635 9.49582 21.7032 9.80523 22.0405 9.92111C24.7664 10.8577 27.1322 13.0413 28.1096 15.9579C28.224 16.299 28.5352 16.5431 28.895 16.5431L33.8246 16.5431C34.3087 16.5431 34.6808 16.1114 34.5809 15.6377Z" stroke="#3563DE" stroke-width="3.16667"/>
</svg>
