<svg width="38" height="38" viewBox="0 0 38 38" fill="none" xmlns="http://www.w3.org/2000/svg">
<path d="M3.25391 18.918C3.25391 27.6625 10.3427 34.7513 19.0872 34.7513C26.4102 34.7513 32.5721 29.7799 34.3819 23.0279C34.5115 22.5445 34.1358 22.0848 33.6353 22.0848H28.5588C28.2276 22.0848 27.9342 22.2922 27.8019 22.5959C26.3847 25.8467 23.1645 28.418 19.0872 28.418C12.7539 28.418 9.58724 22.8763 9.58724 18.918C9.58724 15.3079 11.8737 11.6977 15.4041 10.173C15.7101 10.0408 15.9206 9.74612 15.9206 9.41277V4.36992C15.9206 3.86941 15.4609 3.49371 14.9774 3.62329C8.2254 5.43308 3.25391 11.595 3.25391 18.918Z" stroke="#BCBBBF" stroke-width="3.16667"/>
<path d="M34.5809 15.6376C33.2933 9.52585 28.4807 4.71295 22.369 3.42503C21.8953 3.3252 21.4635 3.69722 21.4635 4.18136L21.4635 9.13914C21.4635 9.49576 21.7032 9.80518 22.0405 9.92106C24.7664 10.8577 27.1322 13.0413 28.1096 15.9578C28.224 16.299 28.5352 16.5431 28.895 16.5431L33.8246 16.5431C34.3087 16.5431 34.6808 16.1113 34.5809 15.6376Z" stroke="#BCBBBF" stroke-width="3.16667"/>
</svg>
